<svg xmlns="http://www.w3.org/2000/svg" viewBox="0 0 64 64" width="64" height="64">
  <circle cx="32" cy="32" r="30" fill="#ff5c85" />
  <path d="M32 10C19.85 10 10 19.85 10 32s9.85 22 22 22 22-9.85 22-22S44.15 10 32 10zm0 40c-9.94 0-18-8.06-18-18s8.06-18 18-18 18 8.06 18 18-8.06 18-18 18z" fill="#ffffff" />
  <path d="M32 18c-7.73 0-14 6.27-14 14s6.27 14 14 14 14-6.27 14-14-6.27-14-14-14zm0 24c-5.51 0-10-4.49-10-10s4.49-10 10-10 10 4.49 10 10-4.49 10-10 10z" fill="#ffffff" />
  <circle cx="32" cy="32" r="6" fill="#ffffff" />
</svg> 